<svg width="1600" height="1000" viewBox="0 0 1600 1000" fill="none" xmlns="http://www.w3.org/2000/svg">
  <rect width="1600" height="1000" fill="#090909"/>
  <rect width="1600" height="1000" fill="url(#bg)"/>
  <path d="M130 650C280 480 470 360 760 348C1030 336 1240 420 1480 592V1000H130V650Z" fill="url(#car)" fill-opacity="0.72"/>
  <path d="M236 631C377 494 515 430 760 422C1004 414 1161 479 1338 592" stroke="#A7D65E" stroke-width="6" stroke-linecap="round"/>
  <circle cx="510" cy="674" r="88" fill="#141414" stroke="#7BBB27" stroke-width="8"/>
  <circle cx="1118" cy="674" r="88" fill="#141414" stroke="#7BBB27" stroke-width="8"/>
  <rect x="108" y="108" width="228" height="54" rx="0" fill="#0F0F0F" stroke="#4D6E1E"/>
  <text x="140" y="144" fill="#B3D67B" font-size="22" font-family="Montserrat, Arial, sans-serif" letter-spacing="4">PPF</text>
  <text x="138" y="835" fill="rgba(255,255,255,0.74)" font-size="32" font-family="Montserrat, Arial, sans-serif" letter-spacing="6">PAINT PROTECTION FILM</text>
  <defs>
    <linearGradient id="bg" x1="1600" y1="80" x2="120" y2="904" gradientUnits="userSpaceOnUse">
      <stop stop-color="#1A1A1A"/>
      <stop offset="0.46" stop-color="#0F130A"/>
      <stop offset="1" stop-color="#080808"/>
    </linearGradient>
    <linearGradient id="car" x1="130" y1="348" x2="1300" y2="900" gradientUnits="userSpaceOnUse">
      <stop stop-color="#607F2D"/>
      <stop offset="0.48" stop-color="#273217"/>
      <stop offset="1" stop-color="#121212"/>
    </linearGradient>
  </defs>
</svg>
